<?xml version="1.0" encoding="UTF-8" standalone="no"?><!DOCTYPE svg PUBLIC "-//W3C//DTD SVG 1.1//EN" "http://www.w3.org/Graphics/SVG/1.1/DTD/svg11.dtd"><svg width="100%" height="100%" viewBox="0 0 1003 154" version="1.1" xmlns="http://www.w3.org/2000/svg" xmlns:xlink="http://www.w3.org/1999/xlink" xml:space="preserve" xmlns:serif="http://www.serif.com/" style="fill-rule:evenodd;clip-rule:evenodd;stroke-linejoin:round;stroke-miterlimit:2;"><g id="THOR-text" serif:id="THOR text"><path d="M834.82,136.978c16.219,-11.604 27.823,-29.579 30.814,-50.836c0.357,-2.535 0.585,-5.038 0.682,-7.541c-4.778,-6.208 -9.751,-12.091 -15.017,-17.65c-0.65,29.091 -6.955,53.827 -16.479,76.027Z" style="fill-rule:nonzero;"/><path d="M808.849,41.904c0,-2.828 -2.275,-5.103 -5.103,-5.103c-2.828,0 -5.103,2.275 -5.103,5.103c0,2.828 2.275,5.103 5.103,5.103c2.828,0 5.103,-2.275 5.103,-5.103Zm-8.191,0c0,-1.69 1.366,-3.088 3.088,-3.088c1.723,0 3.088,1.365 3.088,3.088c0,1.69 -1.365,3.088 -3.088,3.088c-1.722,0 -3.088,-1.398 -3.088,-3.088Z" style="fill-rule:nonzero;"/><path d="M757.591,143.446c6.956,3.413 14.594,5.786 22.688,6.956c16.772,2.373 33.056,-0.975 46.87,-8.581c3.218,-7.476 6.046,-15.277 8.354,-23.468c-28.116,15.895 -53.632,22.688 -77.912,25.093Z" style="fill-rule:nonzero;"/><path d="M827.929,91.603c0,-5.071 -4.128,-9.199 -9.198,-9.199c-5.071,0 -9.199,4.128 -9.199,9.199c0,5.07 4.128,9.198 9.199,9.198c5.07,0.033 9.198,-4.128 9.198,-9.198Zm-15.049,0c0,-3.218 2.6,-5.819 5.818,-5.819c3.218,0 5.818,2.601 5.818,5.819c0,3.217 -2.6,5.818 -5.818,5.818c-3.185,0.032 -5.818,-2.601 -5.818,-5.818Z" style="fill-rule:nonzero;"/><path d="M866.121,69.337c-1.852,-22.297 -13.586,-42.417 -31.301,-55.126c-9.166,0.942 -18.17,2.438 -27.043,4.485c25.938,15.927 44.303,32.992 58.344,50.641Z" style="fill-rule:nonzero;"/><path d="M818.731,113.38l17.227,-9.914l3.478,2.016c0.39,-1.398 0.617,-2.438 0.91,-3.641l0.032,-0.162l-2.795,-1.625l0,-19.34l-18.852,-10.889l-17.097,9.849l-14.075,-8.516l0,-16.967l4.161,-2.601l12.026,6.924l14.465,-8.354l0,-14.497l2.827,-1.625c-1.105,-0.91 -2.08,-1.69 -3.152,-2.503l-1.496,0.846l-12.611,-7.281l-14.464,8.353l0,14.822l-3.673,2.308l-16.902,-9.751l-16.74,9.686l-4.778,-2.763c-0.227,0.942 -0.422,1.885 -0.617,2.86c-0.065,0.325 -0.13,0.65 -0.195,0.975l3.542,2.016l0,19.859l16.805,9.719l0,3.055l-12.417,7.184l0,16.674l12.579,7.249l0,1.625c1.073,0.747 2.048,1.43 3.771,2.568l0,-4.226l12.579,-7.248l0,-16.675l-12.417,-7.183l0,-3.055l14.79,-8.549l14.334,8.646l0,19.112l18.755,11.019Zm-13.815,-29.741l13.782,-7.963l13.782,7.963l0,15.894l-13.782,7.964l-13.782,-7.964l0,-15.894Zm-10.563,-47.163l9.393,-5.428l9.394,5.428l0,10.824l-9.394,5.428l-9.393,-5.428l0,-10.824Zm-16.252,59.97l0,10.823l-9.394,5.429l-9.393,-5.429l0,-10.823l9.393,-5.429l9.394,5.429Zm4.388,-25.808l-13.782,7.963l-13.781,-7.963l0,-15.895l13.781,-7.963l13.782,7.963l0,15.895Z" style="fill-rule:nonzero;"/><path d="M759.509,62.674c0,5.071 4.128,9.199 9.198,9.199c5.071,0 9.199,-4.128 9.199,-9.199c0,-5.071 -4.128,-9.198 -9.199,-9.198c-5.07,0 -9.198,4.127 -9.198,9.198Zm15.016,0c0,3.218 -2.6,5.818 -5.818,5.818c-3.218,0 -5.818,-2.6 -5.818,-5.818c0,-3.218 2.6,-5.818 5.818,-5.818c3.218,0 5.818,2.633 5.818,5.818Z" style="fill-rule:nonzero;"/><path d="M827.377,9.498c-7.866,-4.356 -16.61,-7.346 -26.036,-8.679c-14.042,-1.982 -27.726,0.033 -39.915,5.201c-4.355,9.458 -8.158,19.145 -11.539,28.993c24.313,-11.831 49.731,-21.225 77.49,-25.515Z" style="fill-rule:nonzero;"/><path d="M763.604,101.841c0,2.828 2.275,5.103 5.103,5.103c2.828,0 5.103,-2.275 5.103,-5.103c0,-2.828 -2.275,-5.103 -5.103,-5.103c-2.828,0 -5.103,2.308 -5.103,5.103Zm8.191,0c0,1.69 -1.365,3.088 -3.088,3.088c-1.723,0 -3.088,-1.365 -3.088,-3.088c0,-1.69 1.365,-3.088 3.088,-3.088c1.723,0 3.088,1.398 3.088,3.088Z" style="fill-rule:nonzero;"/><path d="M752.748,10.375c-19.275,11.247 -33.414,30.912 -36.762,54.704c-0.13,0.943 -0.26,1.918 -0.358,2.861c6.566,9.133 13.359,16.999 20.283,24.02c0.877,-26.101 4.68,-52.884 16.837,-81.585Z" style="fill-rule:nonzero;"/><path d="M715.238,76.911c0.423,25.45 13.717,48.593 34.389,62.05c10.629,-0.975 20.218,-2.666 29.026,-4.908c-27.888,-17.292 -48.073,-36.6 -63.415,-57.142Z" style="fill-rule:nonzero;"/><path d="M676.754,66.542l-90.068,0l0,-66.503l-13.815,0l0,152.801l13.815,0l0,-72.484l90.068,0l0,72.484l13.814,0l0,-152.801l-13.814,0l0,66.503Z" style="fill-rule:nonzero;"/><path d="M482.056,0.039l-53.437,0l0,13.847l53.437,0l0,138.954l13.814,0l0,-138.954l53.404,0l0,-13.847l-53.404,0l-13.814,0Z" style="fill-rule:nonzero;"/><path d="M986.32,152.937l16.252,0l-38.549,-60.034c19.86,-5.623 34.421,-23.891 34.421,-45.538c0,-26.133 -21.192,-47.326 -47.325,-47.326l-60.262,0l0,152.768l13.814,0l0,-58.117l44.238,0l37.411,58.247Zm-81.194,-138.596l45.96,0c18.202,0 33.024,14.822 33.024,33.024c0,18.202 -14.822,33.024 -33.024,33.024l-45.96,0l0,-66.048Z" style="fill-rule:nonzero;"/></g><g id="Robo--B-" serif:id="Robo &quot;B&quot;"><g id="Body"><g id="Arm-Base" serif:id="Arm Base"><rect x="256.483" y="113.915" width="18.571" height="16.268"/><path d="M256.483,113.915c-0.674,0 -1.221,3.645 -1.221,8.134c0,4.49 0.547,8.134 1.221,8.134c0.336,-1.355 0.61,-4.533 0.61,-8.134c0,-3.6 -0.274,-6.778 -0.61,-8.134Z"/><path d="M275.053,113.915c0.674,0 1.221,3.645 1.221,8.134c0,4.49 -0.547,8.134 -1.221,8.134c-0.336,-1.355 -0.61,-4.533 -0.61,-8.134c0,-3.6 0.274,-6.778 0.61,-8.134Z"/></g><g id="Base"><rect x="221.636" y="128.586" width="68.426" height="24.611"/><path d="M221.636,128.586c-2.482,0 -4.496,5.514 -4.496,12.306c0,6.791 2.014,12.305 4.496,12.305c1.241,-2.051 2.248,-6.859 2.248,-12.305c0,-5.447 -1.007,-10.255 -2.248,-12.306Z"/><path d="M290.062,128.586c2.482,0 4.497,5.514 4.497,12.306c0,6.791 -2.015,12.305 -4.497,12.305c-1.241,-2.051 -2.248,-6.859 -2.248,-12.305c0,-5.447 1.007,-10.255 2.248,-12.306Z"/></g><g id="Supports"><rect x="228.54" y="12.117" width="4.32" height="95.744"/><rect x="222.707" y="107.293" width="31.491" height="22.305"/><rect x="237.729" y="12.117" width="4.253" height="95.744"/></g><g id="Camera-and-Top" serif:id="Camera and Top"><rect x="228.604" y="12.141" width="13.362" height="2.971"/><rect x="232.093" y="6.502" width="6.384" height="10.793"/><path d="M249.593,6.263c0.294,-1.402 -0.605,-2.779 -2.007,-3.073l-14.949,-3.134c-1.402,-0.294 -2.779,0.605 -3.073,2.007l-0.333,1.59c-0.294,1.402 0.605,2.779 2.007,3.073l14.949,3.134c1.402,0.294 2.779,-0.606 3.073,-2.008l0.333,-1.589Z"/></g></g><g id="Robo-Hand" serif:id="Robo Hand"><g id="third-arm" serif:id="third arm"><path d="M307.459,136.408l3.174,2.329l-3.509,4.782l-4.187,2.504l-1.179,-0.865l2.192,-3.968l3.509,-4.782Z"/><path d="M303.412,133.438l-3.174,-2.329l-3.51,4.782l-1.132,4.745l1.179,0.865l3.127,-3.281l3.51,-4.782Z"/><path d="M321.721,124.676l-11.045,-8.105l-9.439,12.864l11.045,8.105l9.439,-12.864Z"/><path d="M313.766,138.393l-14.151,-10.384l-2.521,3.435l14.152,10.384l2.52,-3.435Z"/><path d="M300.203,128.358c0.111,-0.151 0.078,-0.364 -0.073,-0.475l-0.549,-0.403c-0.151,-0.111 -0.364,-0.078 -0.475,0.073l-2.599,3.542c-0.112,0.152 -0.079,0.365 0.073,0.476l0.548,0.402c0.151,0.111 0.364,0.079 0.476,-0.073l2.599,-3.542Z"/><path d="M314.354,138.742c0.111,-0.151 0.078,-0.364 -0.073,-0.475l-0.549,-0.403c-0.151,-0.111 -0.364,-0.078 -0.475,0.073l-2.599,3.542c-0.111,0.152 -0.078,0.365 0.073,0.476l0.548,0.402c0.152,0.111 0.365,0.079 0.476,-0.073l2.599,-3.542Z"/><path d="M332.7,107.839l-8.729,-6.507l-18.44,24.732l8.729,6.508l18.44,-24.733Z"/></g><g id="second-arm" serif:id="second arm"><path d="M315.513,105.675l9.755,-10.173l12.092,14.296l-7.056,7.359l-14.791,-11.482Z"/><path d="M289.625,68.397l-5.406,6.294l37.219,31.966l5.406,-6.294l-37.219,-31.966Z"/></g><g id="first-arm" serif:id="first arm"><path d="M290.069,61.209l7.63,11.414l-8.896,8.839l-13.13,-5.95l0.783,-12.517l13.613,-1.786Z"/><path d="M288.383,74.288l-7.671,-3.858l-20.114,39.998l7.672,3.858l20.113,-39.998Z"/></g><path id="Arm-Base1" serif:id="Arm Base" d="M274.067,118.3l-16.598,0l2.194,-8.769l12.21,0l2.194,8.769Z"/></g></g><path d="M351.638,111.767l23.171,-40.133l46.341,0l23.171,40.133l-23.171,40.132l-46.341,0l-23.171,-40.132Zm17.421,1.017l14.417,-24.972l28.836,0l14.418,24.972l-14.418,24.973l-28.836,0l-14.417,-24.973Z"/><path d="M110.246,111.767l23.171,-40.133l46.341,0l23.171,40.133l-23.171,40.132l-46.341,0l-23.171,-40.132Zm17.421,1.017l14.417,-24.972l28.836,0l14.418,24.972l-14.418,24.973l-28.836,0l-14.417,-24.973Z"/><rect x="0" y="0.039" width="14.518" height="152.252"/><path d="M8.732,0.039l0,14.886l77.595,0l0,-14.886l-77.595,0Z"/><path d="M8.732,80.497l0,14.733l78.565,0l0,-14.733l-78.565,0Z"/><path d="M73.947,87.499l13.39,7.731l26.227,-45.425l-13.391,-7.731l-26.226,45.425Z"/><path d="M73.479,7.119l12.995,-7.08l27.104,49.75l-12.994,7.08l-27.105,-49.75Z"/><path d="M92.099,152.291l17.694,0l-35.119,-58.736l-19.313,0l36.738,58.736Z"/></svg>